<svg id="レイヤー_1" data-name="レイヤー 1" xmlns="http://www.w3.org/2000/svg" viewBox="0 0 334 68"><defs><style>.cls-1{fill:#e4de19;}.cls-2{fill:#fff;}</style></defs><title>logo</title><path class="cls-1" d="M32.57,60.82c1.9.67,3.38,1,4.45-.52a13,13,0,0,0,2-5.42c.18-1.76-.33-2.59-1.38-3.13a11.37,11.37,0,0,0-6-.81A14.94,14.94,0,0,0,26,52.8a.41.41,0,0,1-.46,0A14.76,14.76,0,0,0,20,50.94a11.35,11.35,0,0,0-6.05.81c-1.05.54-1.56,1.37-1.38,3.13a12.88,12.88,0,0,0,2,5.42c1.06,1.52,2.55,1.19,4.42.53.11,0,.14,0,.07.1L19,61c-1.21,1.62-1.13,2.57-.8,3.21.61,1.23,2.78,2.36,4.39,2.57,1.36.21,2.36-.56,2.87-2.27a11.11,11.11,0,0,0,.29-1.17.06.06,0,0,1,.12,0c.09.4.18.79.29,1.17.52,1.71,1.51,2.48,2.87,2.27,1.62-.21,3.78-1.34,4.4-2.57.32-.64.4-1.59-.8-3.21a.63.63,0,0,1-.1-.12C32.46,60.87,32.48,60.79,32.57,60.82Z"/><path class="cls-2" d="M25.21,50.83c-.26-.86-.47-1.47-.58-1.74a2,2,0,0,0-1.7-1h-.07c-.33,0-.36.28-.38.38a.41.41,0,0,0,.07.32.42.42,0,0,0,.32.13,1.22,1.22,0,0,1,1,.51c.07.17.22.59.55,1.65a.17.17,0,0,1,0,.07.37.37,0,0,0,.4.28l.14,0a.37.37,0,0,0,.26-.52Z"/><path class="cls-2" d="M29.07,48.45a.36.36,0,0,0-.38-.38h-.06a2,2,0,0,0-1.7,1c-.11.26-.32.88-.59,1.74v.05a.36.36,0,0,0,.26.51l.15,0a.37.37,0,0,0,.38-.28l0-.07c.34-1.07.49-1.49.55-1.65a1.26,1.26,0,0,1,1-.51.42.42,0,0,0,.32-.13A.37.37,0,0,0,29.07,48.45Z"/><path class="cls-2" d="M106.48,31.17c-.4,0-1.79,0-3.14.08s-2.8.08-3.17.09c-.72,0-.83-.62-.83-1,0-.64,0-9.74,0-10.54s.33-.75.85-.84,3.29,0,3.8.06h.07a8.15,8.15,0,0,0,1.31,0c.59-.05.92-.84.94-1.39a2.69,2.69,0,0,0-.27-1.36c-.25-.33-.84-.44-1.82-.34a32.1,32.1,0,0,1-3.9.1c-.83-.06-1-.34-1-.83V6c0-.73.29-1.07,1-1.11.44,0,1.9,0,3.3.07s3,.1,3.43.07c.63-.06,1-.57,1-1.42,0-.61-.06-1.27-.5-1.53A2.71,2.71,0,0,0,106.24,2H105c-2,0-6.73,0-7.17,0-.63,0-1.49-.06-1.81.34s-.32.78-.32,1.64c0,.18,0,.55,0,1.08,0,2,.12,6.7.12,12.51,0,4.91-.1,13.71-.14,15.14A1.73,1.73,0,0,0,96.09,34a1.38,1.38,0,0,0,1,.41h.35c.54,0,1.45,0,2.6,0,.73,0,2.2,0,3.61.08,1.1,0,2.07.07,2.62.07h.37c.64-.06,1.24-.11,1.4-.82a8.71,8.71,0,0,0,0-1.84C107.91,31.23,107.23,31.18,106.48,31.17Z"/><path class="cls-2" d="M140,3.52c0-1.14-.29-1.66-1-1.7q-.78,0-1.56,0c-.88.05-1,.7-1,1.55,0,.45.06,5.08.14,10,.08,5.07.16,10.24.14,10.54,0,.45-.11.51-.26.5s-.41-.53-.51-.77l-.06-.13C135.69,23,127.7,3.21,127.64,3c-.26-.65-.57-1-1-1.07a4.93,4.93,0,0,0-1.59,0c-.76.11-.73.88-.7,1.62V3.8c.1,2.54.07,5.88,0,9.41,0,1.8,0,3.66,0,5.45V33.1c0,.78.24,1.21.7,1.27.18,0,.57,0,1,0s.72,0,.9,0c.47-.07.77-.3.83-1.27,0-.37,0-4.09-.08-7.69,0-2.67-.07-5.19-.06-5.77,0-.87-.05-3.61-.08-5.62,0-1.11,0-2,0-2.12,0-.49.18-.51.27-.53s.23,0,.43.43,1.59,3.9,2.73,6.75c.7,1.75,1.33,3.33,1.59,3.95.41,1,1.85,4.72,2.89,7.42.69,1.78,1.23,3.18,1.31,3.37.28.66.64.86.89.91a5.37,5.37,0,0,0,1.67,0c.56-.11.66-.6.67-1.58-.1-3,0-13.92,0-16.09,0-2.49,0-5.19,0-7.57C140,6.78,140,4.88,140,3.52Z"/><path class="cls-2" d="M78,31.17c-.41,0-1.79,0-3.14.08s-2.79.08-3.17.09c-.71,0-.83-.62-.83-1,0-.64,0-9.74,0-10.54s.33-.75.86-.84S75,19,75.46,19h.08a8,8,0,0,0,1.3,0c.59-.05.93-.84.94-1.39a2.59,2.59,0,0,0-.27-1.36c-.24-.33-.84-.44-1.82-.34a32.05,32.05,0,0,1-3.9.1c-.82-.06-1-.34-1-.83V6c0-.73.3-1.07,1-1.11.45,0,1.9,0,3.31.07s3,.1,3.42.07c.63-.06,1-.57,1-1.42,0-.61-.06-1.27-.49-1.53A2.77,2.77,0,0,0,77.71,2H76.45c-2,0-6.73,0-7.18,0-.62,0-1.48-.06-1.81.34s-.32.78-.31,1.64c0,.18,0,.56,0,1.11,0,2.18.13,6.7.13,12.48,0,4.91-.11,13.71-.14,15.14A1.69,1.69,0,0,0,67.56,34a1.41,1.41,0,0,0,1,.41h.34c.55,0,1.45,0,2.61,0,.73,0,2.19,0,3.61.08,1.09,0,2.07.07,2.62.07h.36c.64-.06,1.25-.11,1.4-.82a7.55,7.55,0,0,0,0-1.84C79.39,31.23,78.7,31.18,78,31.17Z"/><path class="cls-2" d="M50.24,32.49c-.08-.25-.29-.93-.54-1.78-.44-1.45-1-3.43-1.43-4.67-.64-2-2-6.24-2.1-6.72,0-.05,0-.11-.05-.18-.09-.29-.24-.73-.1-1s.31-.36.74-.59c.16-.09.36-.19.6-.34,2.63-1.49,2.87-5.41,2.88-6.57a10.15,10.15,0,0,0-1.57-6.12C47.31,2.64,44.74,2,42.8,2H40.72c-1.86,0-4.18,0-4.93,0-1.3,0-1.28,1.11-1.27,1.56s0,2.66,0,6.15c0,2.37,0,5.33,0,8.71,0,3.71-.13,14.36-.13,14.7s0,1.25.7,1.29c.3,0,.78,0,1.29,0,.33,0,.68,0,1,0,.71,0,.74-.55.76-1.08l0-.17c0-.45,0-6.41-.08-10.35,0-1.64,0-2.88,0-3.13,0-.42.1-1.11.83-1.11h.7c.73,0,1.64,0,2.11,0s.94.1,1.25,1.15,1.59,5.77,2,7.15,1.62,5.63,1.83,6.31c.26.88.57,1.22,1.13,1.23s1.27,0,1.55,0h.13a1.22,1.22,0,0,0,.75-.24c.37-.32.19-.87,0-1.51ZM38.05,7.12V6c0-.42.12-1.11,1-1.11h3.92A3.57,3.57,0,0,1,46.16,7.2a13.64,13.64,0,0,1,.42,3.89A6.27,6.27,0,0,1,45.22,15a3.48,3.48,0,0,1-2.42,1c-.59,0-3.1,0-3.77,0s-1-.41-1-1.25C38.07,13.15,38.06,9.08,38.05,7.12Z"/><path class="cls-2" d="M16.43,18.23h-1c-1.74,0-4.64,0-5.11,0-.7,0-.95.25-.95.85v1.25c0,.44.11.86.91.86h2.88c.57,0,.83.31.83,1,0,.18,0,.41,0,.69,0,.82.07,2,0,3.79a5.36,5.36,0,0,1-1.43,3.93,5.11,5.11,0,0,1-3.87,1c-3.26-.19-3.8-3.29-3.93-5.6-.06-1.17,0-8,0-8.13V11.65A13.21,13.21,0,0,1,5.55,6.8c.71-1.53,1.89-2.15,4.07-2.15a3.54,3.54,0,0,1,3.64,2.28,14.23,14.23,0,0,1,.55,4.16v.14c0,1,.26,1.41.89,1.41h1.79a.78.78,0,0,0,.58-.21,1.5,1.5,0,0,0,.27-1.06A14,14,0,0,0,15.91,4.7C15,3.26,13.22,1.54,9.62,1.54c-3.29,0-6,1.21-7.14,3.16a14.73,14.73,0,0,0-1.42,6.67v6.3c0,.86,0,2,0,3.09,0,2.36,0,4.8,0,5.34.18,3.27,1,5,1.71,5.83a7.32,7.32,0,0,0,6,2.86,6.64,6.64,0,0,0,5.29-2.15c.18-.18.35-.27.47-.23s.11.11.12.15c.06.31.11.63.17,1,.1.65.48.78.7.8a5.29,5.29,0,0,0,1.19,0c.53-.08.76-.46.76-1.27V19.51C17.48,18.85,17.35,18.23,16.43,18.23Z"/><path class="cls-2" d="M278.53,4a7.19,7.19,0,0,0-5.14-2c-2-.14-6-.05-7.16,0s-1.42,1-1.41,2c0,1.23,0,11.42,0,14.08,0,2.4,0,5.48.08,8.19,0,3,.08,5.64,0,6.32a1.67,1.67,0,0,0,.3,1.27,2.12,2.12,0,0,0,1.53.43h.13c.95,0,2.85.09,4.53.09,1.07,0,2.05,0,2.65-.09a7.44,7.44,0,0,0,4.43-1.86c1.58-1.35,2.43-4.6,2.43-7,0-.66,0-1.75,0-3.07,0-3.55,0-8.93,0-11.24C280.91,7.66,280.16,5.47,278.53,4Zm-10,5.8c0-1.95,0-3.36,0-3.87,0-.91.42-1,1.11-1h3.5a3.71,3.71,0,0,1,3.24,1.88,7.65,7.65,0,0,1,.93,3.83l0,.32a39.07,39.07,0,0,1,0,4.09c0,.83,0,1.7,0,2.62v8c0,2.11-.64,3.8-1.76,4.64a4,4,0,0,1-3,1H269.6c-.78,0-1.11-.29-1.11-1,0-.29,0-1.56,0-3.24,0-3,0-7.36.05-9.64C268.55,14.61,268.52,11.93,268.5,9.77Z"/><path class="cls-2" d="M332.91,18.65c0-.94,0-2.66,0-4.32s0-3.16,0-3.81l0-.38c-.09-1.65-.23-4.15-2-6-2.09-2.23-4.46-2.42-6.7-2.43h0c-2.85,0-5,.85-6.26,2.44-1.61,2.08-1.85,5.08-1.85,6.69V18.1c0,1.43,0,3,0,4.33,0,1.78-.05,3.31,0,3.95,0,.16,0,.34,0,.55a8.38,8.38,0,0,0,2,5.28c1.35,1.58,3.57,2.42,6.42,2.44H325a8,8,0,0,0,4.08-1c3.37-1.74,3.81-6.44,3.87-7.84C333,23.27,333,20.38,332.91,18.65Zm-13.2,2.58c0-.94,0-2.05,0-3.42v-1.1c0-2.41,0-5.41.14-7.29.18-2.22.62-3.22,1.76-4a4.88,4.88,0,0,1,2.87-.81h.32a4.35,4.35,0,0,1,3.34,1.49,5.77,5.77,0,0,1,1.09,3.69v8.56c0,.57,0,1.36,0,2.24,0,2.13,0,4.78,0,6.16-.06,1.92-1.22,4.76-4.17,4.76h0c-3.29,0-4.61-1.05-5-3.93A33.81,33.81,0,0,1,319.71,21.23Z"/><path class="cls-2" d="M299.49,1.84c-.47,0-1.6-.05-2.08,0-.69,0-.93.28-.94,1.59,0,2.44,0,8.7.11,14.15l-.05,6.16c0,4.28-.06,8-.06,9,0,1.32.16,1.61.91,1.65.4,0,.8,0,1.18,0a6.87,6.87,0,0,0,.93,0c.79-.11.79-.55.78-1.42v-.2c0-.29,0-1.62,0-3.38,0-3.7-.1-9.28-.1-11.4,0-3.16.12-13.44.14-14.41S300.25,1.88,299.49,1.84Z"/><path class="cls-2" d="M180.23,15.32a34,34,0,0,1-4-4.18,5.25,5.25,0,0,1-.27-4.61,4.16,4.16,0,0,1,3.65-1.88,3.92,3.92,0,0,1,3.52,1.61A6.9,6.9,0,0,1,184,9.49l0,.35a1,1,0,0,0,.38.74,2.32,2.32,0,0,0,1.76.23c.59-.1,1.37-.35,1.38-1.26a10.83,10.83,0,0,0-2.28-6c-1.79-2.1-5.19-2.11-6.57-2a7.62,7.62,0,0,0-6.16,4,8.55,8.55,0,0,0,1,7.93,34.25,34.25,0,0,0,4.26,4.59,59.07,59.07,0,0,1,5.58,5.58c.72,1,1.82,4.36.29,6.41-1,1.41-2.7,1.82-4.89,1.21-1.67-.46-2.72-2.12-3.12-4.92,0-.13,0-.24,0-.35-.1-.75-.17-1.29-.81-1.33a4.48,4.48,0,0,0-2.32.59c-.63.4-.48,1.25-.38,1.81l0,.16c.31,1.87,1.29,5.21,4.43,6.7a9.29,9.29,0,0,0,3.88.81,9.44,9.44,0,0,0,3.11-.52A7.09,7.09,0,0,0,188,27.49a9.33,9.33,0,0,0-1.85-6A57.6,57.6,0,0,0,180.23,15.32Z"/><path class="cls-2" d="M215.76,1.83c-1.08,0-8.88.2-12.82.13-.54,0-1.29,0-1.41.83a4.56,4.56,0,0,0,0,1.47.9.9,0,0,0,1,.81h0l2.39-.1,1.12,0h.21a3.53,3.53,0,0,1,1,.07c.39.08.41.38.43,1.1,0,.12,0,.24,0,.38s0,1,0,2.06c-.06,2.23-.16,6.38-.11,12.23,0,1.09,0,4.41-.09,7.34,0,2.41-.06,4.5-.05,4.86,0,.65.14,1.4,1,1.41h1.84c.92,0,1.09-.5,1.11-1.55,0-.45,0-3-.06-5.67,0-2.35-.07-4.82-.08-6.11,0-1,0-3.19-.06-5.56,0-4.11-.1-8.76-.08-9.44,0-1,.3-1,.83-1.09.32,0,1.33,0,2.21,0,.71,0,1.38,0,1.72,0,.73,0,1.11-.25,1.22-.74a5.47,5.47,0,0,0,.05-1.43C217,2.27,216.85,1.78,215.76,1.83Z"/><path class="cls-2" d="M247.75,2a9.43,9.43,0,0,0-2.12,0c-.74.07-.82.56-.81,1.69V17.53c0,.65,0,1.39,0,2.17a67.16,67.16,0,0,1-.17,7.49c-.33,3-1.81,4.36-5,4.36h-.22c-2.59,0-4-1.56-4.2-4.62-.12-1.53-.13-4.49-.13-6.87,0-1,0-1.84,0-2.52,0-2.46.09-12.95.14-14A1.9,1.9,0,0,0,235,2.1a.91.91,0,0,0-.65-.28H234a7.29,7.29,0,0,0-1.62,0c-.79.14-.81.85-.83,1.68,0,.29,0,1.31,0,2.73.05,2.89.12,7.25.1,11,0,1,0,1.9,0,2.73,0,2.83-.09,4.87,0,6.82.35,5.28,3,7.85,8,7.85h.41c6.83-.18,8-4.14,8.27-8,.11-1.56.07-4.26,0-6.43,0-.93,0-1.77,0-2.42,0-1.19,0-5,.08-8.37,0-2.75.06-5.12.06-5.65C248.48,2.65,248.41,2.14,247.75,2Z"/><path class="cls-2" d="M186.91,63.19c-.26,0-1.94,0-2.5,0h-.2a.15.15,0,0,1-.16-.16V61.4c0-1.32,0-3,0-3.44,0-.77,0-5.29,0-5.69s0-.57-.14-.71a.41.41,0,0,0-.31-.12h-.73c-.45,0-.46.36-.47.73v8.52c0,1.54,0,3,0,3.24a.54.54,0,0,0,.53.64c.19,0,4,.08,4.06.08h0c.18,0,.55,0,.58-.41a4,4,0,0,0,0-.6.4.4,0,0,0-.14-.31A.72.72,0,0,0,186.91,63.19Z"/><path class="cls-2" d="M193,55.13a.4.4,0,0,0-.32-.13h-.8a.44.44,0,0,0-.32.12.85.85,0,0,0-.15.62s0,.14,0,.27c0,.44.07,1.45.07,3.56,0,.79,0,1.52,0,2.16,0,1,0,1.82,0,2.16s0,.74.46.77l.31,0h.31c.43,0,.47-.33.48-.74s0-2.82,0-4.28.07-3.43.09-3.81S193.11,55.26,193,55.13Z"/><path class="cls-2" d="M199.94,61.67c.05-.25.23-1.33.42-2.5.25-1.53.51-3.11.57-3.38.09-.49.15-.79.55-.79h.62a.48.48,0,0,1,.41.18.64.64,0,0,1,.06.59c0,.16-.26,1.19-.47,2.19s-.4,1.87-.51,2.36-.3,1.36-.46,2.11-.29,1.37-.33,1.55-.17.69-.58.69h-.79c-.52,0-.61-.57-.64-.79-.08-.46-.64-3-.89-4.08-.1-.44-.34-1.55-.54-2.5L197,55.7a.61.61,0,0,1,.05-.55.38.38,0,0,1,.32-.15h.75c.35,0,.56.21.61.62,0,.24,1,5.74,1.07,6.05C199.83,61.77,199.91,61.82,199.94,61.67Z"/><path class="cls-2" d="M193.13,52.89c0-.17,0-.63-.43-.72a2.76,2.76,0,0,0-.76,0c-.55,0-.55.51-.55.74v.83c0,.18,0,.62.49.62h.7c.48,0,.54-.27.55-.55,0-.09,0-.31,0-.52S193.13,53,193.13,52.89Z"/><path class="cls-2" d="M207.91,60h2.92c.51,0,.53-.36.56-.64a10.74,10.74,0,0,0-.28-3,2.22,2.22,0,0,0-2.06-1.38,2.46,2.46,0,0,0-2.3.88c-.6.78-.7,2.09-.66,4v.57a16.59,16.59,0,0,0,.13,2.15,2.43,2.43,0,0,0,2.27,2.28l.52,0a2.3,2.3,0,0,0,1.55-.57,3.66,3.66,0,0,0,.83-2.69.42.42,0,0,0-.45-.47h-.73a.38.38,0,0,0-.28.11.47.47,0,0,0-.1.4v.77a1.08,1.08,0,0,1-.31.8,1.16,1.16,0,0,1-.9.24,1.12,1.12,0,0,1-.88-1.09c0-.56,0-1.83,0-2.14C207.74,60,207.75,60,207.91,60Zm-.17-1.45v-.8c0-.93.35-1.41,1-1.41s1.05.42,1.05,1.32v1c0,.12,0,.21-.19.21h-1.75C207.75,58.83,207.74,58.69,207.74,58.5Z"/><path class="cls-2" d="M302.65,64c0,.19.1.55.45.56a3.59,3.59,0,0,0,.47,0c.23,0,.55,0,.54-.51,0-.08,0-.19,0-.34s0-.41-.06-.69c0-.71,0-4.12,0-4.71v-.2a4.76,4.76,0,0,0-.3-2.12A2.07,2.07,0,0,0,302,54.91a2.69,2.69,0,0,0-2,.48,2.58,2.58,0,0,0-1,1.84.93.93,0,0,0,.12.73.32.32,0,0,0,.26.12h.71c.46,0,.47-.41.47-.58a1.65,1.65,0,0,1,.12-.71.92.92,0,0,1,1-.58h0c.77,0,.87,1,.87,1.06,0,.27,0,.78,0,1v.08c0,.2,0,.31-.19.39s-.2.09-.35.14A7,7,0,0,0,300,60a2.94,2.94,0,0,0-1.14,2.86,2.13,2.13,0,0,0,1.87,1.86h.17a1.76,1.76,0,0,0,1.4-.65,1.8,1.8,0,0,1,.21-.19C302.56,63.86,302.63,63.85,302.65,64Zm-.1-3.8a14.87,14.87,0,0,1,0,1.52c0,.2,0,.36,0,.47a1.42,1.42,0,0,1-1.16,1.08.75.75,0,0,1-.59-.15,1.05,1.05,0,0,1-.34-.73,1.57,1.57,0,0,1,.72-1.6,3.74,3.74,0,0,1,1.1-.69l.11,0C302.48,60.06,302.55,60.09,302.55,60.21Z"/><path class="cls-2" d="M226.06,61.49c.09-.5.59-5.31.63-5.71s.08-.77.55-.78h.54a.51.51,0,0,1,.4.15c.12.15.11.37,0,.73l-.17,1c-.14.83-.32,2-.52,3s-.39,2.44-.51,3.3c-.05.4-.09.68-.11.79-.08.42-.24.51-.53.52h-.65c-.46,0-.53-.46-.56-.61s-.91-5.38-1-5.69a1.11,1.11,0,0,0-.09-.3,2.75,2.75,0,0,1-.05.31c-.1.38-.8,4.16-1.05,5.59-.08.41-.12.66-.45.7l-.26,0h-.58c-.43,0-.5-.41-.55-.68,0-.11-.08-.52-.15-1-.14-.94-.34-2.36-.48-3.15-.27-1.62-.57-3.5-.62-3.84l0-.18a.66.66,0,0,1,0-.52.4.4,0,0,1,.26-.15,3.29,3.29,0,0,1,.63,0c.24,0,.5.14.58.62,0,.09.08.7.18,1.49.18,1.55.46,3.89.53,4.29,0,.11.11.18.15,0,.14-.61.41-2.26.63-3.64.16-1,.29-1.77.34-2s.13-.62.51-.69a1.74,1.74,0,0,1,.45,0h.14c.35,0,.56.29.63.8s.9,5.2,1,5.6C225.94,61.58,226,61.64,226.06,61.49Z"/><path class="cls-2" d="M332.38,62.93a.63.63,0,0,0-.14-.49.53.53,0,0,0-.4-.14h-.74c-.55,0-.55.47-.55.65v1.17c0,.39.14.54.49.54h.81c.35,0,.53-.18.53-.55v-.32c0-.31,0-.7,0-.85Z"/><path class="cls-2" d="M309.73,55.72l.11-.09a3,3,0,0,1,.84-.53,1.37,1.37,0,0,1,1.05,0,.42.42,0,0,1,.2.29,2.89,2.89,0,0,1,0,.93c-.11.36-.39.39-.65.37l-.18,0a1.11,1.11,0,0,0-.94.17,1.32,1.32,0,0,0-.62,1c0,.19,0,2.11.05,2.86,0,.36,0,1.17,0,1.89s0,1.13,0,1.29c0,.31,0,.7-.48.74h-.52c-.23,0-.39,0-.51-.13a.8.8,0,0,1-.14-.62c0-.27,0-1.49,0-2.56v-2.8c0-1.33,0-2.59,0-2.82a.73.73,0,0,1,.13-.52.49.49,0,0,1,.36-.13h.68c.46,0,.47.41.47.6a.25.25,0,0,0,0,.09C309.61,55.78,309.67,55.77,309.73,55.72Z"/><path class="cls-2" d="M247.58,56.8a2.25,2.25,0,0,1,1.14-.6.51.51,0,0,1,.38.1,1.29,1.29,0,0,1,.29.88c.05.75,0,6.31,0,6.74a.8.8,0,0,0,.15.61.45.45,0,0,0,.35.13h.74c.47,0,.47-.42.48-.73s0-5.45,0-6.86-.51-2-1.51-2.16a3.07,3.07,0,0,0-2,.76c-.11.06-.12,0-.12-.11,0-.38,0-2.45.07-3.21a1.16,1.16,0,0,0-.19-.86.45.45,0,0,0-.33-.14h-.68a.44.44,0,0,0-.34.14.89.89,0,0,0-.18.69v.29c0,.75.11,2.49.08,5.4,0,1.59-.08,5.58-.09,6s0,.77.46.79H247c.45,0,.46-.46.46-.77s0-2.36-.05-4.31c0-1.21,0-2.22,0-2.33A.53.53,0,0,1,247.58,56.8Z"/><path class="cls-2" d="M238.88,56.42v.4c0,1.27-.06,5.14,0,6.14.08,1.38,1,1.78,1.44,1.79h.85a.92.92,0,0,0,.49-.09c.27-.16.3-.55.3-.9,0-.15-.06-.48-.56-.48h-.52c-.38,0-.44-.38-.44-.6V56.45c0-.15,0-.15.12-.16h1c.17,0,.36,0,.47-.2a1.49,1.49,0,0,0,.06-.65c0-.38-.36-.39-.55-.4h-.94c-.08,0-.11-.05-.12-.13s0-1.12,0-1.66v-.46a.57.57,0,0,0-.11-.47.36.36,0,0,0-.27-.1h-.71c-.35,0-.46.13-.47.56v2.05c0,.11,0,.15-.11.15h-.58c-.42,0-.46.27-.46.47v.36c0,.31.12.46.38.46h.67C238.85,56.3,238.88,56.33,238.88,56.42Z"/><path class="cls-2" d="M233.94,55.85a.69.69,0,0,0-.14-.58.52.52,0,0,0-.41-.18h-.63a.52.52,0,0,0-.39.15.76.76,0,0,0-.17.59c0,.2,0,.53,0,1s0,1.49.06,2.71c0,.69,0,2.1-.08,4.18v.17a.92.92,0,0,0,.18.62.4.4,0,0,0,.29.12h.72c.22,0,.46-.17.46-.64v-.47c0-1,0-3.13,0-3.81S233.9,56.18,233.94,55.85Z"/><path class="cls-2" d="M232.67,54.25h.72c.23,0,.46-.06.46-.47v-1c0-.17,0-.56-.38-.56h-.8c-.47,0-.47.44-.47.65v.8A.53.53,0,0,0,232.67,54.25Z"/><path class="cls-2" d="M269.25,56.8a2.09,2.09,0,0,1,1.14-.59.47.47,0,0,1,.38.09,1.34,1.34,0,0,1,.29.88c.05.75,0,6.32-.05,6.74a.89.89,0,0,0,.15.61.49.49,0,0,0,.36.14h.73c.47,0,.48-.43.49-.74s0-5.44,0-6.86-.52-2-1.52-2.15a3.1,3.1,0,0,0-2,.75c-.1.06-.11,0-.11-.11,0-.37,0-2.45.07-3.21a1.16,1.16,0,0,0-.19-.86.48.48,0,0,0-.34-.14h-.67a.48.48,0,0,0-.35.14.9.9,0,0,0-.17.69v.29c0,.75.11,2.49.07,5.4,0,1.59-.08,5.58-.08,6s0,.77.46.8h.81c.45,0,.46-.46.46-.78,0-.16,0-2.36-.05-4.3,0-1.21,0-2.23,0-2.34A.51.51,0,0,1,269.25,56.8Z"/><path class="cls-2" d="M260.55,56.42v.4c0,1.27-.06,5.14,0,6.14.08,1.38.94,1.78,1.44,1.79h.85a.93.93,0,0,0,.49-.09c.26-.16.3-.54.29-.9,0-.15-.06-.48-.55-.48h-.53c-.37,0-.43-.38-.43-.6V56.45c0-.15,0-.15.12-.16h1c.17,0,.35,0,.46-.2a1.35,1.35,0,0,0,.06-.65c0-.38-.35-.39-.54-.4h-.95c-.08,0-.11-.05-.11-.13s0-1.12,0-1.66v-.46a.65.65,0,0,0-.11-.47.41.41,0,0,0-.27-.1H261c-.35,0-.47.14-.47.56v2.05c0,.11,0,.15-.11.15h-.58a.41.41,0,0,0-.47.47v.36c0,.31.13.47.38.47h.68C260.51,56.3,260.55,56.33,260.55,56.42Z"/><path class="cls-2" d="M278.21,60h2.91c.51,0,.54-.36.56-.64a10.74,10.74,0,0,0-.28-3,2.21,2.21,0,0,0-2-1.38,2.47,2.47,0,0,0-2.31.88c-.6.78-.7,2.09-.66,4,0,.2,0,.39,0,.57a13.65,13.65,0,0,0,.13,2.15,2.42,2.42,0,0,0,2.27,2.28,4.36,4.36,0,0,0,.51,0,2.32,2.32,0,0,0,1.56-.57,3.61,3.61,0,0,0,.82-2.69.41.41,0,0,0-.45-.47h-.73a.38.38,0,0,0-.28.11.51.51,0,0,0-.1.4v.77a1.08,1.08,0,0,1-.31.8,1.14,1.14,0,0,1-.9.24,1.13,1.13,0,0,1-.88-1.09c0-.56,0-1.83,0-2.14C278,60,278.05,60,278.21,60ZM278,58.5v-.8c0-.93.35-1.41,1-1.41s1.05.42,1.05,1.32v1c0,.12,0,.21-.18.21h-1.76C278,58.83,278,58.69,278,58.5Z"/><path class="cls-2" d="M291.74,60h2.91c.51,0,.54-.36.56-.64a10.74,10.74,0,0,0-.28-3,2.21,2.21,0,0,0-2.05-1.38,2.47,2.47,0,0,0-2.31.88c-.6.78-.7,2.09-.66,4,0,.2,0,.39,0,.57a13.65,13.65,0,0,0,.13,2.15,2.42,2.42,0,0,0,2.27,2.28,4.36,4.36,0,0,0,.51,0,2.31,2.31,0,0,0,1.56-.57,3.61,3.61,0,0,0,.82-2.69.41.41,0,0,0-.45-.47H294a.38.38,0,0,0-.28.11.55.55,0,0,0-.1.4v.77a1.11,1.11,0,0,1-.3.8,1.17,1.17,0,0,1-.91.24,1.13,1.13,0,0,1-.88-1.09c0-.56,0-1.83,0-2.14C291.56,60,291.58,60,291.74,60Zm-.18-1.45v-.8c0-.93.35-1.41,1-1.41s1,.42,1,1.32v1c0,.12,0,.21-.18.21h-1.76C291.57,58.83,291.56,58.69,291.56,58.5Z"/><path class="cls-2" d="M324.34,56.78a2.17,2.17,0,0,1,1.14-.59.46.46,0,0,1,.38.09,1.29,1.29,0,0,1,.29.88c.06.75,0,6.32,0,6.75a.78.78,0,0,0,.15.6.47.47,0,0,0,.35.14h.74c.47,0,.48-.43.48-.73s0-5.45,0-6.87-.51-2-1.51-2.15a3.07,3.07,0,0,0-2,.75c-.1.06-.12,0-.12-.11,0-.37,0-2.44.08-3.21a1.2,1.2,0,0,0-.2-.86.44.44,0,0,0-.33-.14H323a.48.48,0,0,0-.34.14.94.94,0,0,0-.18.69v.29c0,.75.11,2.5.08,5.41,0,1.58-.08,5.57-.09,6s0,.78.46.8h.81c.45,0,.46-.46.47-.78,0-.16,0-2.36-.06-4.3,0-1.21,0-2.23,0-2.34A.55.55,0,0,1,324.34,56.78Z"/><path class="cls-2" d="M315.93,56.41v.39c0,1.28-.06,5.15,0,6.14.08,1.38.95,1.78,1.44,1.8h.85a.92.92,0,0,0,.49-.1c.26-.16.3-.54.29-.9,0-.14-.06-.48-.55-.48h-.53c-.37,0-.43-.39-.43-.61V56.43c0-.14,0-.15.12-.15h1c.17,0,.35,0,.47-.2a1.33,1.33,0,0,0,0-.64c0-.39-.35-.4-.54-.41h-.94c-.09,0-.12,0-.12-.13s0-1.12,0-1.66V52.8a.68.68,0,0,0-.11-.48.41.41,0,0,0-.27-.1h-.71c-.35,0-.47.14-.47.56v2c0,.11,0,.15-.11.15h-.58a.41.41,0,0,0-.47.47v.36c0,.31.13.47.38.47h.68C315.89,56.28,315.93,56.31,315.93,56.41Z"/></svg>